<svg width="19" height="18" viewBox="0 0 19 18" fill="none" xmlns="http://www.w3.org/2000/svg">
<path fill-rule="evenodd" clip-rule="evenodd" d="M2.47826 0V2.47826H0V4.13043H2.47826V6.6087H4.13043V4.13043H6.6087V2.47826H4.13043V0H2.47826ZM4.95652 4.95652V7.43478H2.47826V15.6957C2.47826 16.6043 3.22174 17.3478 4.13043 17.3478H17.3478C18.2565 17.3478 19 16.6043 19 15.6957V5.78261C19 4.87391 18.2565 4.13043 17.3478 4.13043H14.7291L13.2174 2.47826H7.43478V4.95652H4.95652ZM10.7391 14.8696C13.0191 14.8696 14.8696 13.0191 14.8696 10.7391C14.8696 8.45913 13.0191 6.6087 10.7391 6.6087C8.45913 6.6087 6.6087 8.45913 6.6087 10.7391C6.6087 13.0191 8.45913 14.8696 10.7391 14.8696ZM10.7391 13.2174C9.36783 13.2174 8.26087 12.1104 8.26087 10.7391C8.26087 9.36783 9.36783 8.26087 10.7391 8.26087C12.1104 8.26087 13.2174 9.36783 13.2174 10.7391C13.2174 12.1104 12.1104 13.2174 10.7391 13.2174Z" fill="white"/>
</svg>
