<svg xmlns="http://www.w3.org/2000/svg" width="110" height="28" fill="none" viewBox="0 0 110 28"><g clip-path="url(#clip0)"><path fill="#4A4D81" d="M4.61992 16.9728C4.61992 17.799 4.91201 18.1977 5.47128 18.6761C5.81621 18.9691 6.48214 19.2073 6.88091 19.2073C8.71522 19.2073 9.72509 17.2937 9.72509 14.8469C9.72509 12.3203 8.42412 10.5921 6.34756 10.5921C5.73645 10.5921 5.23102 10.8044 4.91201 11.1233C4.69967 11.3625 4.61992 11.815 4.61992 12.9313V16.9728ZM1.82558 12.8246C1.82558 11.6286 1.8535 11.3894 1.16164 10.9369L0.841634 10.7247C0.736959 10.5642 0.736959 10.2463 0.869548 10.1137C1.93325 9.82067 3.5293 9.07517 4.32683 8.54395C4.53917 8.54395 4.69967 8.65059 4.75151 8.81105C4.67375 9.28846 4.61992 9.60838 4.61992 9.84659C4.61992 10.0071 4.69967 10.1655 4.83226 10.1934C5.17719 10.033 6.74632 9.04926 8.12904 9.04926C11.03 9.04926 12.7038 11.23 12.7038 13.9688C12.7038 17.6644 10.0979 20.2717 6.18706 20.2717C5.87004 20.2717 5.25694 20.2179 5.01868 20.1651C4.77843 20.2179 4.61992 20.3774 4.61992 20.9086V23.5159C4.61992 25.4833 4.72559 25.7763 5.6577 25.8829L6.61373 25.9886C6.80016 26.175 6.77224 26.6524 6.5599 26.76C5.17719 26.7062 4.1404 26.6803 3.15646 26.6803C2.27818 26.6803 1.2404 26.7062 0.177693 26.76C-0.0346483 26.6524 -0.0605678 26.175 0.12386 25.9886L0.815715 25.9089C1.72091 25.8022 1.82558 25.4833 1.82558 23.5159V12.8246Z"/><path fill="#4A4D81" d="M20.0463 15.6179C20.0463 15.3248 19.9655 15.1654 19.8339 15.1654C19.6196 15.1654 19.1421 15.2969 18.6636 15.4833C17.9189 15.7504 17.226 16.1232 17.226 17.2653C17.226 17.957 17.7065 18.8082 18.7174 18.8082C19.6734 18.8082 19.9655 18.1693 19.9925 17.5315L20.0463 15.6179ZM22.6532 16.5218C22.5725 18.0627 22.9712 18.86 23.9293 18.86C24.3818 18.86 24.7527 18.57 24.8344 18.57C24.967 18.57 25.1535 18.86 25.0727 19.1012C24.5404 19.8447 23.2384 20.2713 22.413 20.2713C21.748 20.2713 21.0023 20.0849 20.4989 19.5258C20.3125 19.3394 20.2048 19.2068 20.0742 19.2068C19.9396 19.2068 19.7532 19.3394 19.3544 19.5796C18.849 19.8985 18.0515 20.2713 17.0934 20.2713C15.2851 20.2713 14.3809 19.0205 14.3809 17.6919C14.3809 16.7341 14.7537 15.8561 16.588 15.2192C17.5201 14.8983 18.53 14.5275 19.5149 14.1547C20.0463 13.9684 20.126 13.7282 20.126 13.4631L20.152 12.7724C20.2048 11.4159 19.8339 10.2458 18.53 10.2458C17.7853 10.2458 17.226 10.6445 17.1214 11.4159C17.0675 11.9202 16.907 12.1873 16.6139 12.3737C16.2421 12.6119 15.4974 12.8521 14.9122 12.8521C14.5673 12.8521 14.4078 12.6657 14.4078 12.4255C14.4078 12.1066 14.5673 11.5485 15.4436 10.7242C16.269 9.9528 18.1841 9.04883 19.5409 9.04883C21.6413 9.04883 22.9443 10.0325 22.8396 12.3737L22.6532 16.5218Z"/><path fill="#4A4D81" d="M27.0672 12.8239C27.0672 11.6279 27.0672 11.309 26.4022 10.9103L26.0832 10.7239C26.0035 10.6173 26.0035 10.2455 26.1092 10.113C27.2536 9.74022 28.6632 9.15518 29.4608 8.67578C29.6213 8.67578 29.7808 8.75651 29.8336 8.91598C29.8077 9.42129 29.7808 9.87278 29.7808 10.113C29.7808 10.2994 29.8854 10.4309 30.0459 10.4309C30.8704 9.84587 31.7497 9.04853 32.6519 9.04853C33.584 9.04853 34.1163 9.65949 34.1163 10.3512C34.1163 11.3887 33.3447 11.894 32.6259 11.894C32.3608 11.894 32.1205 11.8143 31.9082 11.6817C31.2432 11.2292 30.7916 11.1764 30.6311 11.1764C30.02 11.1764 29.8595 11.7884 29.8595 13.091V16.7338C29.8595 18.7012 29.9672 18.9943 30.8983 19.1009L31.9361 19.2066C32.1205 19.3929 32.0946 19.8723 31.8822 19.978C30.2852 19.9242 29.382 19.8982 28.3981 19.8982C27.5188 19.8982 26.6425 19.9242 25.6316 19.978C25.4193 19.8723 25.3914 19.3929 25.5778 19.2066L26.0573 19.1268C26.9615 18.9684 27.0672 18.7012 27.0672 16.7338V12.8239Z"/><path fill="#4A4D81" d="M64.8374 12.2926C64.8374 11.7614 64.7566 11.3887 64.4925 11.0169C64.1196 10.5116 63.5344 10.1129 62.709 10.1129C60.9006 10.1129 59.7581 11.894 59.7581 14.1265C59.7581 16.8663 61.1927 18.6753 63.0818 18.6753C63.7208 18.6753 64.4386 18.3284 64.651 18.0902C64.7836 17.9567 64.8374 17.7175 64.8374 17.3447V12.2926ZM67.6297 15.5637C67.6297 17.9836 67.8161 18.8078 68.2687 18.8078C68.5598 18.8078 68.9865 18.7281 69.3853 18.5696C69.5976 18.7281 69.6515 19.367 69.3574 19.5254C68.0026 19.659 66.1144 20.1105 65.1564 20.5351C65.0218 20.5091 64.8912 20.4035 64.8374 20.243L64.8912 19.8444C64.9431 19.4457 64.9171 19.2324 64.8633 19.1009L64.7307 19.0739C63.9332 19.659 62.9492 20.2709 61.6702 20.2709C58.6396 20.2709 56.7515 17.8241 56.7515 15.165C56.7515 11.3348 59.81 9.04848 63.1357 9.04848C63.8255 9.04848 64.332 9.12822 64.6769 9.23486C64.7836 9.20895 64.8374 9.10231 64.8374 8.81028V5.32494C64.8374 3.5439 64.7836 3.38543 64.2243 3.01268L63.8534 2.77248C63.6929 2.66584 63.667 2.24126 63.8534 2.16152C64.8912 1.8685 66.2739 1.31137 67.3366 0.884794C67.4971 0.858881 67.6576 0.964527 67.7095 1.09708C67.6576 2.16152 67.6297 3.81001 67.6297 4.95418V15.5637Z"/><path fill="#4A4D81" d="M71.6722 5.00777C71.6722 4.1038 72.3361 3.41211 73.2941 3.41211C74.2522 3.41211 74.9161 4.1038 74.9161 5.00777C74.9161 5.91175 74.2522 6.60244 73.2941 6.60244C72.3361 6.60244 71.6722 5.91175 71.6722 5.00777ZM74.7038 16.7345C74.7038 18.702 74.8114 18.9691 75.7156 19.1275L76.1941 19.2073C76.3806 19.3936 76.3527 19.873 76.1403 19.9787C75.1564 19.9249 74.2522 19.899 73.2682 19.899C72.3899 19.899 71.4857 19.9249 70.4759 19.9787C70.2635 19.873 70.2356 19.3936 70.422 19.2073L70.9006 19.1275C71.8048 18.9691 71.9114 18.702 71.9114 16.7345V12.8246C71.9114 11.6286 71.9114 11.3097 71.2475 10.911L70.9265 10.7246C70.8487 10.618 70.8487 10.2462 70.9534 10.1137C72.3361 9.71502 73.667 9.12899 74.4127 8.6765C74.5712 8.70441 74.7038 8.75723 74.7855 8.88879C74.7307 9.76685 74.7038 11.0436 74.7038 12.1339V16.7345Z"/><path fill="#4A4D81" d="M82.7625 15.9099C83.7734 15.9099 84.5191 15.0328 84.5191 13.171C84.5191 11.3621 83.7475 10.0594 82.5502 10.0594C81.6181 10.0594 80.7946 10.9365 80.7946 12.7724C80.7946 14.8205 81.7527 15.9099 82.7625 15.9099ZM82.5502 21.2012C81.6181 21.2012 81.0598 21.2809 80.7418 21.5201C80.2892 21.866 79.9443 22.3453 79.9443 23.0101C79.9443 24.6317 81.3798 25.6951 83.4265 25.6951C85.6895 25.6951 86.9645 24.7643 86.9645 23.2224C86.9645 21.866 85.7154 21.2012 84.0655 21.2012H82.5502ZM87.0183 11.389C87.0981 11.6541 87.1509 11.9471 87.1509 12.5322C87.1509 14.7657 85.6635 16.9205 82.284 16.9205C81.965 16.9205 81.6181 16.8667 81.2732 16.8139C80.8465 17.0261 80.4477 17.371 80.4477 17.8504C80.4477 18.3836 80.8206 18.8879 81.9132 18.8879C82.6828 18.8879 83.6946 18.8341 84.8371 18.8341C86.7522 18.8341 89.1727 19.153 89.1727 22.0523C89.1727 23.4357 88.2146 24.7383 87.4969 25.2965C86.3265 26.2533 84.6248 27.0526 82.3379 27.0526C78.5875 27.0526 77.3633 25.2965 77.3633 23.9141C77.3633 23.5154 77.4171 23.1686 77.7361 22.7699C77.9764 22.5038 78.9862 21.9188 79.385 21.5739C79.5974 21.4135 79.7838 21.0686 79.5455 20.9889C78.6134 20.67 77.79 19.8178 77.79 18.7823C77.79 18.5152 77.8946 18.3029 78.2146 18.1165C78.6134 17.9042 79.9164 17.079 79.9164 16.7082C79.9164 16.6275 79.9164 16.468 79.8107 16.4152C78.9065 16.0424 77.8418 14.979 77.8418 13.2508C77.8418 10.8568 79.8366 9.04883 82.7107 9.04883C83.7734 9.04883 84.7055 9.26112 85.3954 9.60796C85.9536 9.87307 86.2467 10.0066 86.5657 10.0066H89.1727C89.2793 10.0864 89.386 10.2717 89.386 10.486C89.386 11.0172 89.1727 11.3352 88.9603 11.389H87.0183Z"/><path fill="#4A4D81" d="M91.3796 12.8239C91.3796 11.6279 91.3796 11.309 90.7147 10.9103L90.3957 10.7239C90.3159 10.6173 90.3159 10.2455 90.4236 10.113C91.594 9.79404 93.0295 9.15518 93.8799 8.67578C94.0663 8.67578 94.174 8.78242 94.2258 8.88807C94.174 9.39537 94.174 9.90068 94.174 10.113C94.174 10.2994 94.2527 10.3512 94.4122 10.3771C95.7152 9.6874 96.407 9.04853 98.2154 9.04853C99.3599 9.04853 100.237 9.65949 100.608 10.1648C100.768 10.405 100.929 10.5635 101.035 10.5635C101.141 10.5635 101.302 10.4857 101.621 10.2994C102.871 9.52793 103.775 9.04853 105.025 9.04853C107.259 9.04853 108.269 10.5376 108.269 12.6116V16.7338C108.269 18.7012 108.377 18.9943 109.279 19.1268L109.865 19.2066C110.106 19.3929 109.973 19.8723 109.865 19.978C108.722 19.9242 107.818 19.8982 106.834 19.8982C105.956 19.8982 105.052 19.9242 104.094 19.978C103.882 19.8723 103.855 19.3929 104.041 19.2066L104.467 19.1268C105.37 18.9684 105.477 18.7012 105.477 16.7338V13.1169C105.477 11.7076 104.998 10.6442 103.323 10.6442C102.551 10.6442 101.861 11.0429 101.54 11.4415C101.276 11.7615 101.221 12.0804 101.221 12.8239V16.7338C101.221 18.7012 101.328 19.0202 102.232 19.1527L102.631 19.2066C102.817 19.3929 102.791 19.8723 102.577 19.978C101.648 19.9242 100.768 19.8982 99.7846 19.8982C98.9083 19.8982 98.0021 19.9242 97.1258 19.978C96.9135 19.8723 96.8855 19.3929 97.072 19.2066L97.4169 19.1527C98.3231 19.0202 98.4278 18.7012 98.4278 16.7338V13.1169C98.4278 11.7076 97.9502 10.6442 96.407 10.6442C95.5028 10.6442 94.811 11.0708 94.5189 11.4694C94.1999 11.894 94.174 12.1332 94.174 13.1707V16.7338C94.174 18.7012 94.2776 19.0202 95.1838 19.1527L95.5826 19.2066C95.769 19.3929 95.7431 19.8723 95.5307 19.978C94.5986 19.9242 93.6934 19.8982 92.7085 19.8982C91.8332 19.8982 90.9549 19.9242 89.9431 19.978C89.7307 19.8723 89.7038 19.3929 89.8902 19.2066L90.3697 19.1268C91.2739 18.9684 91.3796 18.7012 91.3796 16.7338V12.8239Z"/><path fill="#CBBD7A" d="M45.5967 1.56445L55.0324 15.0324L51.1415 25.1236L45.5967 1.56445Z"/><path fill="#CBBD7A" d="M43.7776 4.62455C44.5193 7.87368 47.7094 21.825 48.2926 24.3745C45.9888 23.3519 37.1811 19.436 35.8552 18.846C36.568 17.5643 42.1945 7.46505 43.7776 4.62455ZM43.3769 1.90465L33.5005 19.6304L50.6692 27.2648L44.4376 -0.000976562L43.3769 1.90465Z"/><path fill="#CBBD7A" d="M42.6161 12.2263L35.3467 18.7017L35.7813 19.189C35.7813 19.189 42.6151 13.1024 42.9022 12.8472C43.2392 12.9778 46.5599 14.2675 46.5599 14.2675L46.7952 13.6595L42.7657 12.0928L42.6161 12.2263Z"/><path fill="#CBBD7A" d="M42.5083 12.445L43.1593 12.4939L43.9139 2.72854L43.264 2.67871L42.5083 12.445Z"/></g><defs><clipPath id="clip0"><rect width="110" height="27.265" fill="#fff"/></clipPath></defs></svg>