<svg xmlns="http://www.w3.org/2000/svg" width="24" height="24" version="1.1"><g><g fill="#2980b9" transform="translate(0 -1028.4)"><path fill="#1abc9c" d="m3 1035.4v13h3v-13h-3zm5 0v13h3v-13h-3zm5 0v13h3v-13h-3zm5 0v13h3v-13h-3z"/><path fill="#16a085" d="m4 1047.4c-1.1046 0-2 0.9-2 2v1h10 10v-1c0-1.1-0.895-2-2-2h-8-8z"/><path fill="#1abc9c" d="m2 1048.4c-1.1046 0-2 0.9-2 2l2.8719e-8 1h24v-1c0-1.1-0.895-2-2-2h-20z"/><rect width="24" height="1" x="0" y="1050.4" fill="#16a085"/><path fill="#1abc9c" d="m12 1l-12 5v1h24v-1l-12-5z" transform="translate(0 1028.4)"/><g fill="#16a085"><rect width="1.5" height="13" x="3" y="1035.4"/><rect width="1.5" height="13" x="8" y="1035.4"/><rect width="1.5" height="12" x="13" y="1035.4"/><rect width="1.5" height="12" x="18" y="1035.4"/><path d="m2.2812 1035.4c0.3461 0.6 0.9792 1 1.7188 1h8 8c0.74 0 1.373-0.4 1.719-1h-19.438z"/></g></g></g></svg>