<svg id="Capa_1" enable-background="new 0 0 512 512" height="512" viewBox="0 0 512 512" width="512" xmlns="http://www.w3.org/2000/svg"><g><g><g><path d="m194.999 264.882h-43.072c-18.096 0-36.001-6.025-50.418-16.964l-56.401-42.797c-26.235-19.907-36.483-54.142-25.5-85.19 10.497-29.674 38.699-49.863 70.176-50.238 30.757-.365 48.232.607 48.96.649l-1.926 33.853c-.168-.009-17.17-.944-46.631-.596-17.32.206-32.838 11.314-38.613 27.641-6.043 17.082-.405 35.918 14.03 46.871l56.4 42.797c8.555 6.492 19.182 10.067 29.921 10.067h43.072v33.907z" fill="#ffd064"/></g></g><g><g><path d="m101.51 230.054-56.401-42.797c-16.721-12.688-26.934-31.199-29.309-50.993-3.128 26.147 7.619 52.399 29.309 68.857l56.401 42.797c14.416 10.939 32.322 16.964 50.418 16.964h43.072v-17.864h-43.072c-18.096 0-36.002-6.025-50.418-16.964z" fill="#ecbe6b"/></g></g><g><g><path d="m317.158 264.882h43.072c18.096 0 36.001-6.025 50.418-16.964l56.401-42.797c26.235-19.907 36.483-54.142 25.5-85.19-10.497-29.674-38.699-49.863-70.176-50.238-30.757-.365-48.232.607-48.96.649l1.926 33.853c.168-.009 17.17-.944 46.631-.596 17.32.206 32.838 11.314 38.613 27.641 6.043 17.082.405 35.918-14.03 46.871l-56.4 42.797c-8.555 6.492-19.182 10.067-29.921 10.067h-43.072v33.907z" fill="#ffd064"/></g></g><g><g><path d="m492.548 119.931c-4.913-13.89-13.707-25.701-24.9-34.376 4.829 6.224 8.733 13.252 11.445 20.922 10.983 31.048.735 65.283-25.5 85.19l-56.401 42.797c-14.416 10.939-32.322 16.964-50.418 16.964h-29.618v13.454h43.072c18.096 0 36.001-6.025 50.418-16.964l56.401-42.797c26.236-19.907 36.484-54.142 25.501-85.19z" fill="#ecbe6b"/></g></g><g><path d="m310.992 389.073-20.058-15.202c-8.62-6.533-13.684-16.726-13.684-27.542v-67.478h-45.429v67.478c0 10.816-5.064 21.009-13.684 27.542l-20.058 15.202c-6.252 4.738-2.901 14.707 4.943 14.707h103.026c7.845-.001 11.196-9.969 4.944-14.707z" fill="#ffd064"/></g><g><path d="m310.992 389.073-20.058-15.202c-8.62-6.533-13.684-16.726-13.684-27.542v-67.478h-23.546v67.478c0 10.816 5.064 21.009 13.684 27.542l20.058 15.202c6.252 4.738 2.901 14.707-4.943 14.707h23.546c7.844-.001 11.195-9.969 4.943-14.707z" fill="#ecbe6b"/></g><g><path d="m383.485 20.368h-254.813c-4.882 0-8.839 3.957-8.839 8.839v91.245c0 39.067 10.878 77.362 31.416 110.595l23.53 38.074c36.878 59.673 123.521 60.081 160.959.757l24.122-38.224c21.208-33.607 32.464-72.533 32.464-112.272v-90.175c0-4.881-3.957-8.839-8.839-8.839z" fill="#ffe07d"/></g><g><path d="m383.485 20.368h-40.843v49.332c0 39.739-11.256 78.666-32.464 112.273l-24.122 38.224c-26.707 42.32-78.451 54.233-119.31 35.927l8.033 12.998c36.878 59.673 123.521 60.081 160.959.757l24.122-38.224c21.208-33.607 32.464-72.533 32.464-112.272v-90.176c0-4.881-3.957-8.839-8.839-8.839z" fill="#ffd064"/></g><g><g><path d="m256 459.75c-48.37 0-95.307-14.441-135.737-41.763-39.314-26.568-70.645-63.934-90.605-108.058-1.755-3.877-.033-8.442 3.844-10.196 3.878-1.755 8.442-.032 10.195 3.844 38.682 85.51 122.017 140.763 212.303 140.763s173.619-55.253 212.302-140.763c1.753-3.875 6.318-5.598 10.195-3.844s5.599 6.319 3.844 10.196c-19.96 44.124-51.291 81.491-90.605 108.058-40.43 27.321-87.366 41.763-135.736 41.763z" fill="#0dc183"/></g><g><path d="m502.569 291.849c-8.415 19.916-22.762 32.881-32.045 28.959s-9.987-23.247-1.573-43.163c6.096-14.429 26.185-37.367 36.792-48.912 2.291-2.494 6.441-.74 6.25 2.641-.883 15.653-3.328 46.047-9.424 60.475z" fill="#aad880"/></g><g><path d="m505.744 228.734c-2.942 3.202-6.615 7.283-10.515 11.814-1.395 15.355-3.881 33.656-8.211 43.905-5.928 14.03-14.799 24.601-22.77 28.258 1.192 3.965 3.287 6.834 6.277 8.098 9.283 3.922 23.63-9.043 32.045-28.959 6.096-14.429 8.54-44.822 9.424-60.475.191-3.382-3.959-5.135-6.25-2.641z" fill="#80cb8e"/></g><g><path d="m446.204 336.128c.632 20.412-6.568 37.198-16.082 37.493s-17.74-16.014-18.373-36.426c-.458-14.788 7.737-42.398 12.288-56.49.983-3.044 5.236-3.176 6.405-.198 5.415 13.783 15.304 40.833 15.762 55.621z" fill="#aad880"/></g><g><path d="m388.666 376.459c8.043 18.771 7.47 37.028-1.28 40.777s-22.363-8.429-30.406-27.201c-5.827-13.599-8.28-42.296-9.19-57.076-.196-3.193 3.715-4.868 5.891-2.524 10.074 10.854 29.158 32.425 34.985 46.024z" fill="#aad880"/></g><g><path d="m388.666 376.459c-5.827-13.599-24.911-35.17-34.985-46.024-2.176-2.345-6.087-.669-5.891 2.524.26 4.225.647 9.589 1.202 15.41 9.405 10.898 19.913 24.254 23.976 33.736 5.634 13.149 7.034 26.037 4.364 33.871 3.636 1.974 7.119 2.516 10.054 1.259 8.75-3.748 9.323-22.005 1.28-40.776z" fill="#80cb8e"/></g><g><path d="m439.961 420.182c-19.283-6.723-32.375-19.46-29.241-28.449 3.134-8.988 21.307-10.825 40.59-4.101 13.97 4.871 36.811 22.415 48.337 31.713 2.49 2.008 1.089 6.026-2.11 6.051-14.809.117-43.606-.343-57.576-5.214z" fill="#aad880"/></g><g><path d="m378.715 462.296c-19.283-6.723-32.375-19.46-29.241-28.449 3.134-8.988 21.307-10.825 40.59-4.101 13.97 4.871 36.811 22.415 48.337 31.713 2.49 2.008 1.089 6.026-2.11 6.051-14.808.117-43.605-.343-57.576-5.214z" fill="#aad880"/></g><g><path d="m499.646 419.345c-4.684-3.778-11.236-8.918-18.302-14.016-15.565-.022-40.427-.812-53.096-5.229-6.673-2.327-12.603-5.374-17.378-8.737-.05.124-.108.243-.152.37-3.134 8.988 9.958 21.725 29.241 28.449 13.97 4.871 42.768 5.331 57.576 5.215 3.2-.025 4.601-4.043 2.111-6.052z" fill="#80cb8e"/></g><g><path d="m438.401 461.46c-4.684-3.778-11.236-8.918-18.302-14.016-15.566-.022-40.427-.812-53.096-5.229-6.673-2.327-12.603-5.374-17.377-8.737-.05.124-.108.244-.152.37-3.134 8.988 9.958 21.725 29.241 28.449 13.97 4.871 42.768 5.331 57.576 5.214 3.198-.025 4.599-4.043 2.11-6.051z" fill="#80cb8e"/></g><g><path d="m9.431 291.849c8.415 19.916 22.762 32.881 32.045 28.959s9.987-23.247 1.573-43.163c-6.096-14.429-26.185-37.367-36.792-48.912-2.291-2.494-6.441-.74-6.25 2.641.883 15.653 3.328 46.047 9.424 60.475z" fill="#aad880"/></g><g><path d="m43.048 277.645c-6.096-14.429-26.185-37.367-36.792-48.912-2.291-2.494-6.441-.74-6.25 2.641.246 4.361.614 9.866 1.148 15.851 10.186 11.823 21.963 26.759 26.384 37.222 5.827 13.792 7.278 27.296 4.538 35.602 3.39 1.584 6.622 1.932 9.399.759 9.284-3.922 9.988-23.247 1.573-43.163z" fill="#80cb8e"/></g><g><path d="m65.796 336.128c-.632 20.412 6.568 37.198 16.082 37.493s17.74-16.014 18.373-36.426c.458-14.788-7.737-42.398-12.288-56.49-.983-3.044-5.236-3.176-6.405-.198-5.415 13.783-15.304 40.833-15.762 55.621z" fill="#aad880"/></g><g><path d="m446.204 336.128c-.458-14.788-10.347-41.838-15.761-55.621-1.17-2.977-5.423-2.845-6.406.198-1.34 4.149-2.995 9.473-4.653 15.292 4.772 13.574 9.67 29.827 9.989 40.131.435 14.047-2.839 26.376-8.025 32.796 2.633 3.073 5.632 4.794 8.773 4.697 9.515-.294 16.716-17.081 16.083-37.493z" fill="#80cb8e"/></g><g><path d="m87.963 280.705c-.983-3.044-5.236-3.175-6.406-.198-1.642 4.18-3.695 9.583-5.773 15.491 3.973 13.949 7.958 30.764 7.635 41.198-.424 13.673-4.257 25.495-9.599 31.729 2.349 2.909 5.091 4.605 8.058 4.697 9.514.295 17.74-16.014 18.373-36.426.458-14.788-7.737-42.399-12.288-56.491z" fill="#80cb8e"/></g><g><path d="m123.334 376.459c-8.043 18.771-7.47 37.028 1.28 40.777s22.363-8.429 30.406-27.201c5.827-13.599 8.28-42.296 9.19-57.076.196-3.193-3.715-4.868-5.891-2.524-10.074 10.854-29.158 32.425-34.985 46.024z" fill="#aad880"/></g><g><path d="m158.319 330.435c-3.143 3.386-7.163 7.816-11.385 12.722-1.412 14.191-3.823 30.671-7.828 40.018-5.379 12.553-13.247 22.149-20.488 26.013 1.085 3.942 3.085 6.8 5.995 8.047 8.75 3.749 22.363-8.429 30.406-27.201 5.827-13.599 8.28-42.296 9.19-57.076.197-3.192-3.714-4.868-5.89-2.523z" fill="#80cb8e"/></g><g><path d="m72.039 420.182c19.283-6.723 32.375-19.46 29.241-28.449-3.134-8.988-21.307-10.825-40.59-4.101-13.97 4.871-36.811 22.415-48.337 31.713-2.489 2.008-1.089 6.026 2.11 6.051 14.809.117 43.606-.343 57.576-5.214z" fill="#aad880"/></g><g><path d="m133.285 462.296c19.283-6.723 32.375-19.46 29.241-28.449-3.134-8.988-21.307-10.825-40.59-4.101-13.97 4.871-36.811 22.415-48.337 31.713-2.489 2.008-1.089 6.026 2.11 6.051 14.808.117 43.605-.343 57.576-5.214z" fill="#aad880"/></g><g><path d="m101.281 391.733c-1.283-3.679-5.088-6.158-10.456-7.344-2.96 7.835-14.108 16.545-28.918 21.708-9.28 3.236-25.1 4.524-39.018 4.991-4.014 3.052-7.634 5.916-10.535 8.257-2.49 2.008-1.089 6.026 2.11 6.051 14.808.116 43.605-.344 57.576-5.215 19.283-6.722 32.375-19.459 29.241-28.448z" fill="#80cb8e"/></g><g><path d="m162.526 433.848c-1.283-3.679-5.088-6.158-10.456-7.344-2.96 7.835-14.108 16.545-28.918 21.708-9.28 3.236-25.1 4.524-39.018 4.991-4.014 3.052-7.634 5.916-10.535 8.257-2.489 2.008-1.089 6.026 2.11 6.051 14.808.116 43.605-.344 57.576-5.214 19.283-6.724 32.375-19.461 29.241-28.449z" fill="#80cb8e"/></g></g><g><circle cx="253.704" cy="149.382" fill="#ecbe6b" r="57.658"/></g><g><path d="m275.171 95.87c2.665 6.637 4.146 13.877 4.146 21.467 0 31.844-25.814 57.658-57.658 57.658-7.59 0-14.83-1.481-21.467-4.146 8.516 21.209 29.258 36.192 53.512 36.192 31.844 0 57.658-25.814 57.658-57.658.001-24.255-14.982-44.996-36.191-53.513z" fill="#eab14d"/></g><g><path d="m257.913 123.739 6.037 12.231c.549 1.111 1.609 1.882 2.836 2.06l13.498 1.961c3.089.449 4.322 4.245 2.087 6.424l-9.767 9.521c-.888.865-1.293 2.112-1.083 3.333l2.306 13.444c.528 3.076-2.701 5.422-5.464 3.97l-12.073-6.347c-1.097-.577-2.408-.577-3.505 0l-12.073 6.347c-2.763 1.452-5.992-.894-5.464-3.97l2.306-13.444c.21-1.222-.195-2.468-1.083-3.333l-9.767-9.521c-2.235-2.179-1.002-5.975 2.087-6.424l13.498-1.961c1.227-.178 2.287-.949 2.836-2.06l6.037-12.231c1.378-2.799 5.37-2.799 6.751 0z" fill="#ffe07d"/></g><g><g><path d="m282.37 146.416c2.235-2.179 1.002-5.975-2.087-6.424l-4.921-.715-13.117 12.786c-1.315 1.281-1.914 3.127-1.604 4.936l2.946 17.174 4.775 2.51c2.763 1.452 5.992-.894 5.464-3.97l-2.306-13.444c-.21-1.222.195-2.468 1.083-3.333z" fill="#ffd064"/></g></g><g><path d="m330.887 491.632h-149.617c-4.727 0-8.558-3.832-8.558-8.558v-70.736c0-4.727 3.832-8.558 8.558-8.558h149.617c4.727 0 8.558 3.832 8.558 8.558v70.736c.001 4.726-3.831 8.558-8.558 8.558z" fill="#407093"/></g><g><path d="m330.91 403.779h-16.209v54.573c0 4.714-3.821 8.535-8.535 8.535h-133.454v16.209c0 4.714 3.821 8.535 8.535 8.535h149.663c4.714 0 8.535-3.821 8.535-8.535v-70.782c.001-4.714-3.821-8.535-8.535-8.535z" fill="#365e7d"/></g></g></svg>